<svg xmlns="http://www.w3.org/2000/svg" xmlns:xlink="http://www.w3.org/1999/xlink" width="600" zoomAndPan="magnify" viewBox="0 0 450 149.999998" height="200" preserveAspectRatio="xMidYMid meet" version="1.0"><defs><g/><clipPath id="343c67f1c1"><path d="M 143 55 L 169 55 L 169 79 L 143 79 Z M 143 55 " clip-rule="nonzero"/></clipPath><clipPath id="a187cccacc"><path d="M 140.40625 40.625 L 179.007812 46.175781 L 174.203125 79.582031 L 135.601562 74.03125 Z M 140.40625 40.625 " clip-rule="nonzero"/></clipPath><clipPath id="572d151b34"><path d="M 140.40625 40.625 L 179.007812 46.175781 L 174.203125 79.582031 L 135.601562 74.03125 Z M 140.40625 40.625 " clip-rule="nonzero"/></clipPath><clipPath id="f7f8bc0682"><path d="M 138 51 L 149 51 L 149 64 L 138 64 Z M 138 51 " clip-rule="nonzero"/></clipPath><clipPath id="1eb6135109"><path d="M 140.40625 40.625 L 179.007812 46.175781 L 174.203125 79.582031 L 135.601562 74.03125 Z M 140.40625 40.625 " clip-rule="nonzero"/></clipPath><clipPath id="fdd4b96ef9"><path d="M 140.40625 40.625 L 179.007812 46.175781 L 174.203125 79.582031 L 135.601562 74.03125 Z M 140.40625 40.625 " clip-rule="nonzero"/></clipPath><clipPath id="429ca471c8"><path d="M 147 42 L 158 42 L 158 55 L 147 55 Z M 147 42 " clip-rule="nonzero"/></clipPath><clipPath id="8d5d15859b"><path d="M 140.40625 40.625 L 179.007812 46.175781 L 174.203125 79.582031 L 135.601562 74.03125 Z M 140.40625 40.625 " clip-rule="nonzero"/></clipPath><clipPath id="abb586d26a"><path d="M 140.40625 40.625 L 179.007812 46.175781 L 174.203125 79.582031 L 135.601562 74.03125 Z M 140.40625 40.625 " clip-rule="nonzero"/></clipPath><clipPath id="f167829934"><path d="M 166 55 L 177 55 L 177 68 L 166 68 Z M 166 55 " clip-rule="nonzero"/></clipPath><clipPath id="f51da00746"><path d="M 140.40625 40.625 L 179.007812 46.175781 L 174.203125 79.582031 L 135.601562 74.03125 Z M 140.40625 40.625 " clip-rule="nonzero"/></clipPath><clipPath id="689fe74f44"><path d="M 140.40625 40.625 L 179.007812 46.175781 L 174.203125 79.582031 L 135.601562 74.03125 Z M 140.40625 40.625 " clip-rule="nonzero"/></clipPath><clipPath id="b4b1cbd33e"><path d="M 160 44 L 170 44 L 170 56 L 160 56 Z M 160 44 " clip-rule="nonzero"/></clipPath><clipPath id="04f6ff19b3"><path d="M 140.40625 40.625 L 179.007812 46.175781 L 174.203125 79.582031 L 135.601562 74.03125 Z M 140.40625 40.625 " clip-rule="nonzero"/></clipPath><clipPath id="afb88c7239"><path d="M 140.40625 40.625 L 179.007812 46.175781 L 174.203125 79.582031 L 135.601562 74.03125 Z M 140.40625 40.625 " clip-rule="nonzero"/></clipPath></defs><g clip-path="url(#343c67f1c1)"><g clip-path="url(#a187cccacc)"><g clip-path="url(#572d151b34)"><path fill="#ec4899" d="M 164.847656 65.042969 C 164.191406 64.636719 163.441406 63.117188 163.019531 61.34375 C 162.734375 60.148438 161.886719 56.621094 158.324219 55.847656 C 158.253906 55.820312 158.183594 55.800781 158.105469 55.789062 C 158.070312 55.785156 158.035156 55.785156 158 55.78125 C 157.960938 55.777344 157.929688 55.765625 157.894531 55.761719 C 157.816406 55.75 157.742188 55.746094 157.667969 55.753906 C 154.03125 55.492188 152.222656 58.636719 151.617188 59.703125 C 150.710938 61.285156 149.5625 62.535156 148.820312 62.738281 C 145.644531 63.605469 143.402344 66.492188 143.363281 69.757812 C 143.328125 72.746094 145.15625 75.164062 148.140625 76.058594 C 148.488281 76.164062 148.84375 76.242188 149.203125 76.292969 C 150.183594 76.433594 151.191406 76.378906 152.167969 76.121094 C 152.597656 76.011719 152.992188 75.867188 153.371094 75.726562 C 154.027344 75.484375 154.601562 75.277344 155.191406 75.296875 C 155.761719 75.445312 156.257812 75.804688 156.820312 76.222656 C 157.144531 76.464844 157.480469 76.714844 157.859375 76.941406 C 158.726562 77.460938 159.675781 77.800781 160.65625 77.941406 C 161.015625 77.992188 161.378906 78.015625 161.742188 78.015625 C 164.855469 77.996094 167.292969 76.195312 168.101562 73.3125 C 168.984375 70.171875 167.644531 66.769531 164.847656 65.042969 Z M 164.847656 65.042969 " fill-opacity="1" fill-rule="nonzero"/></g></g></g><g clip-path="url(#f7f8bc0682)"><g clip-path="url(#1eb6135109)"><g clip-path="url(#fdd4b96ef9)"><path fill="#ec4899" d="M 148.277344 57.238281 C 148.273438 54.277344 146.425781 51.777344 143.980469 51.425781 C 143.785156 51.398438 143.582031 51.382812 143.382812 51.382812 C 140.6875 51.386719 138.496094 54.015625 138.5 57.246094 C 138.503906 60.207031 140.351562 62.703125 142.796875 63.054688 C 142.996094 63.085938 143.195312 63.097656 143.394531 63.097656 C 146.089844 63.09375 148.28125 60.464844 148.277344 57.238281 Z M 148.277344 57.238281 " fill-opacity="1" fill-rule="nonzero"/></g></g></g><g clip-path="url(#429ca471c8)"><g clip-path="url(#8d5d15859b)"><g clip-path="url(#abb586d26a)"><path fill="#ec4899" d="M 151.898438 54.113281 C 154.566406 54.496094 157.109375 52.207031 157.570312 49.011719 C 158.03125 45.8125 156.234375 42.902344 153.566406 42.515625 C 150.898438 42.132812 148.355469 44.421875 147.894531 47.617188 C 147.433594 50.816406 149.230469 53.730469 151.898438 54.113281 Z M 151.898438 54.113281 " fill-opacity="1" fill-rule="nonzero"/></g></g></g><g clip-path="url(#f167829934)"><g clip-path="url(#f51da00746)"><g clip-path="url(#689fe74f44)"><path fill="#ec4899" d="M 175.75 58.050781 C 175.085938 56.71875 173.992188 55.832031 172.671875 55.546875 C 170.027344 54.980469 167.335938 57.109375 166.664062 60.253906 C 166.347656 61.742188 166.515625 63.25 167.140625 64.5 C 167.804688 65.832031 168.898438 66.722656 170.21875 67.003906 C 170.3125 67.023438 170.40625 67.039062 170.5 67.054688 C 173.0625 67.421875 175.578125 65.332031 176.226562 62.300781 C 176.542969 60.8125 176.375 59.304688 175.75 58.050781 Z M 175.75 58.050781 " fill-opacity="1" fill-rule="nonzero"/></g></g></g><g clip-path="url(#b4b1cbd33e)"><g clip-path="url(#04f6ff19b3)"><g clip-path="url(#afb88c7239)"><path fill="#ec4899" d="M 164.164062 55.875 C 166.832031 56.261719 169.375 53.972656 169.835938 50.773438 C 170.292969 47.578125 168.496094 44.664062 165.832031 44.28125 C 163.164062 43.898438 160.617188 46.1875 160.15625 49.382812 C 159.699219 52.578125 161.496094 55.492188 164.164062 55.875 Z M 164.164062 55.875 " fill-opacity="1" fill-rule="nonzero"/></g></g></g><g fill="#ec4899" fill-opacity="1"><g transform="translate(141.72042, 116.4194)"><g><path d="M 6.164062 -47.492188 C 6.164062 -46.113281 6.234375 -43.429688 8.121094 -43.429688 C 10.875 -43.429688 13.703125 -43.359375 16.457031 -43.359375 C 18.199219 -43.359375 20.445312 -43.71875 20.445312 -45.894531 C 20.445312 -51.1875 19.503906 -53.4375 13.777344 -53.4375 C 9.207031 -53.4375 6.164062 -52.855469 6.164062 -47.492188 Z M 14.429688 -37.339844 C 5.074219 -37.339844 5.65625 -31.828125 5.65625 -24.433594 C 5.65625 -22.332031 5.511719 -20.300781 5.511719 -18.199219 C 5.511719 -13.195312 5.511719 -0.871094 12.761719 -0.871094 C 21.75 -0.871094 20.738281 -10.875 20.738281 -17.109375 C 20.738281 -20.882812 20.808594 -24.722656 20.808594 -28.496094 C 20.808594 -32.84375 19.578125 -37.339844 14.429688 -37.339844 Z M 14.429688 -37.339844 "/></g></g></g><g fill="#ec4899" fill-opacity="1"><g transform="translate(168.256303, 116.4194)"><g><path d="M 25.375 -24.722656 C 25.375 -24.363281 25.304688 -24 24.941406 -23.855469 C 24.214844 -23.636719 18.5625 -23.5625 17.257812 -23.417969 C 12.6875 -22.984375 8.121094 -21.824219 4.785156 -18.488281 C 3.117188 -16.820312 2.539062 -14.5 2.539062 -12.179688 C 2.539062 -5.367188 8.84375 0 15.445312 0 C 19.578125 0 23.78125 -3.554688 25.59375 -3.554688 C 26.101562 -3.554688 26.101562 -1.957031 26.390625 -1.523438 C 26.828125 -0.871094 27.769531 -0.871094 28.496094 -0.871094 L 30.816406 -0.871094 C 37.558594 -0.871094 39.585938 -5.148438 39.585938 -11.238281 C 39.585938 -15.296875 39.515625 -19.285156 39.515625 -23.347656 C 39.515625 -33.859375 30.015625 -37.773438 20.882812 -37.773438 C 17.835938 -37.773438 6.597656 -36.976562 5.4375 -33.640625 C 5.074219 -32.554688 5.003906 -31.175781 5.003906 -30.015625 C 5.003906 -28.710938 4.710938 -27.117188 6.527344 -27.117188 C 11.382812 -27.117188 15.949219 -28.566406 20.808594 -28.566406 C 23.128906 -28.566406 25.375 -27.261719 25.375 -24.722656 Z M 14.9375 -11.816406 C 14.9375 -15.660156 18.921875 -16.386719 22.042969 -16.386719 C 22.695312 -16.386719 24.578125 -16.457031 25.085938 -16.242188 C 25.449219 -16.097656 25.523438 -15.445312 25.523438 -15.082031 C 25.523438 -11.382812 21.824219 -8.917969 18.417969 -8.917969 C 16.820312 -8.917969 14.9375 -10.078125 14.9375 -11.816406 Z M 14.9375 -11.816406 "/></g></g></g><g fill="#ec4899" fill-opacity="1"><g transform="translate(211.467729, 116.4194)"><g><path d="M 41.402344 -22.042969 C 41.402344 -28.640625 41.402344 -36.761719 32.699219 -36.761719 C 27.261719 -36.761719 27.1875 -33.933594 27.1875 -29.4375 C 27.1875 -24.796875 27.335938 -20.15625 27.335938 -15.515625 C 27.335938 -12.6875 24.289062 -10.441406 21.605469 -10.441406 C 17.910156 -10.441406 17.546875 -13.847656 17.546875 -16.75 C 17.546875 -20.230469 17.835938 -23.710938 17.835938 -27.1875 C 17.835938 -28.710938 17.765625 -30.234375 17.691406 -31.757812 C 17.617188 -33.496094 17.402344 -36.398438 15.152344 -36.613281 C 14.355469 -36.6875 13.484375 -36.6875 12.6875 -36.6875 C 3.699219 -36.6875 3.84375 -30.886719 3.84375 -23.710938 L 3.84375 -15.445312 C 3.84375 -7.613281 7.683594 0 16.457031 0 C 21.390625 0 23.054688 -2.683594 27.117188 -3.699219 C 28.640625 -1.59375 26.972656 -0.796875 30.523438 -0.796875 C 41.253906 -0.796875 41.402344 -5.367188 41.402344 -14.574219 Z M 41.402344 -22.042969 "/></g></g></g><g fill="#ec4899" fill-opacity="1"><g transform="translate(256.854223, 116.4194)"><g><path d="M 45.386719 -43.066406 C 45.386719 -43.867188 45.171875 -46.910156 44.953125 -47.5625 C 42.996094 -52.929688 26.464844 -52.058594 22.042969 -52.058594 C 18.269531 -52.058594 7.832031 -51.839844 5.148438 -49.230469 C 4.058594 -48.144531 3.769531 -44.734375 3.769531 -43.214844 C 3.769531 -36.324219 15.082031 -43.71875 16.53125 -35.960938 C 16.820312 -34.222656 16.894531 -32.410156 16.894531 -30.667969 C 16.894531 -26.972656 16.75 -23.347656 16.75 -19.648438 C 16.75 -15.734375 16.675781 -3.699219 20.300781 -1.523438 C 21.535156 -0.796875 23.347656 -0.871094 24.796875 -0.871094 C 26.464844 -0.871094 28.496094 -0.796875 29.800781 -2.03125 C 32.121094 -4.277344 32.335938 -19.359375 32.335938 -22.984375 C 32.335938 -25.957031 32.191406 -28.855469 32.191406 -31.828125 C 32.191406 -36.179688 33.0625 -40.167969 38.28125 -40.167969 C 39.371094 -40.167969 40.386719 -40.023438 41.472656 -40.023438 C 43.574219 -40.023438 45.386719 -40.601562 45.386719 -43.066406 Z M 45.386719 -43.066406 "/></g></g></g><g fill="#ec4899" fill-opacity="1"><g transform="translate(305.865851, 116.4194)"><g><path d="M 41.402344 -22.042969 C 41.402344 -28.640625 41.402344 -36.761719 32.699219 -36.761719 C 27.261719 -36.761719 27.1875 -33.933594 27.1875 -29.4375 C 27.1875 -24.796875 27.335938 -20.15625 27.335938 -15.515625 C 27.335938 -12.6875 24.289062 -10.441406 21.605469 -10.441406 C 17.910156 -10.441406 17.546875 -13.847656 17.546875 -16.75 C 17.546875 -20.230469 17.835938 -23.710938 17.835938 -27.1875 C 17.835938 -28.710938 17.765625 -30.234375 17.691406 -31.757812 C 17.617188 -33.496094 17.402344 -36.398438 15.152344 -36.613281 C 14.355469 -36.6875 13.484375 -36.6875 12.6875 -36.6875 C 3.699219 -36.6875 3.84375 -30.886719 3.84375 -23.710938 L 3.84375 -15.445312 C 3.84375 -7.613281 7.683594 0 16.457031 0 C 21.390625 0 23.054688 -2.683594 27.117188 -3.699219 C 28.640625 -1.59375 26.972656 -0.796875 30.523438 -0.796875 C 41.253906 -0.796875 41.402344 -5.367188 41.402344 -14.574219 Z M 41.402344 -22.042969 "/></g></g></g><g fill="#ec4899" fill-opacity="1"><g transform="translate(351.252346, 116.4194)"><g><path d="M 18.851562 -37.703125 C 18.851562 -39.734375 18.996094 -41.761719 18.996094 -43.792969 C 18.996094 -45.386719 18.921875 -50.609375 18.199219 -51.695312 C 17.835938 -52.277344 17.257812 -52.785156 16.605469 -52.929688 C 15.949219 -53.074219 15.226562 -53.074219 14.574219 -53.074219 C 12.398438 -53.074219 10.152344 -53.144531 8.410156 -51.695312 C 4.640625 -48.578125 4.566406 -34.367188 4.566406 -29.582031 C 4.566406 -27.335938 4.421875 -25.015625 4.421875 -22.765625 C 4.421875 -17.402344 4.640625 -7.394531 7.976562 -3.117188 C 9.714844 -0.941406 11.019531 -1.523438 13.414062 -1.304688 C 14.136719 -1.234375 14.792969 -1.160156 15.515625 -1.160156 C 16.167969 -1.160156 16.75 -1.234375 17.328125 -1.449219 C 18.777344 -2.03125 17.546875 -3.84375 18.707031 -3.84375 C 19.359375 -3.84375 25.015625 -0.21875 28.640625 -0.21875 C 39.082031 -0.21875 44.519531 -11.164062 44.519531 -20.375 C 44.519531 -29.074219 39.804688 -37.921875 30.164062 -37.921875 C 28.277344 -37.921875 26.03125 -37.414062 24.289062 -36.761719 C 23.347656 -36.398438 21.242188 -35.527344 20.300781 -35.527344 C 19.359375 -35.527344 18.851562 -36.90625 18.851562 -37.703125 Z M 24.871094 -10.003906 C 19.792969 -10.003906 18.199219 -13.414062 18.199219 -18.054688 C 18.199219 -19.722656 18.269531 -21.316406 18.269531 -22.984375 C 18.269531 -26.175781 22.113281 -28.132812 24.941406 -28.132812 C 29.292969 -28.132812 30.816406 -23.710938 30.816406 -20.011719 C 30.816406 -16.167969 29.871094 -10.003906 24.871094 -10.003906 Z M 24.871094 -10.003906 "/></g></g></g><g fill="#ec4899" fill-opacity="1"><g transform="translate(397.726384, 116.4194)"><g><path d="M 40.3125 -17.835938 C 40.3125 -20.589844 40.023438 -23.128906 39.082031 -25.738281 C 36.542969 -32.84375 30.523438 -37.847656 22.839844 -37.847656 C 11.527344 -37.847656 1.59375 -31.539062 1.59375 -19.359375 C 1.59375 -7.394531 11.09375 0.144531 22.621094 0.144531 C 25.230469 0.144531 33.425781 -0.578125 35.308594 -2.246094 C 36.761719 -3.554688 36.832031 -6.089844 36.832031 -7.902344 C 36.832031 -9.28125 36.179688 -10.222656 34.730469 -10.222656 C 31.320312 -10.222656 28.203125 -8.992188 24.796875 -8.992188 C 22.042969 -8.992188 16.242188 -9.859375 16.242188 -13.484375 C 16.242188 -15.296875 24.507812 -15.226562 25.882812 -15.226562 C 28.640625 -15.226562 31.46875 -15.007812 34.222656 -15.007812 C 36.179688 -15.007812 40.3125 -15.082031 40.3125 -17.835938 Z M 19.359375 -22.332031 C 18.5625 -22.332031 15.660156 -22.476562 15.660156 -23.710938 C 15.660156 -27.117188 18.417969 -28.929688 21.605469 -28.929688 C 24.433594 -28.929688 27.042969 -27.40625 27.042969 -24.289062 C 27.042969 -22.550781 25.304688 -22.332031 23.925781 -22.332031 Z M 19.359375 -22.332031 "/></g></g></g><path fill="#ec4899" d="M 134.070312 16.71875 C 133.722656 15.84375 133.371094 15.398438 132.398438 15.460938 C 131.289062 15.527344 121.539062 22.988281 113.75 29.472656 C 112.761719 30.296875 111.785156 31.117188 110.835938 31.929688 C 110.382812 32.316406 109.9375 32.703125 109.496094 33.082031 C 108.171875 34.230469 106.925781 35.339844 105.796875 36.375 C 103.714844 38.289062 102.050781 39.949219 101.109375 41.113281 C 99.390625 43.246094 98.21875 43.257812 96.125 42.410156 C 91.589844 40.566406 86.890625 39.726562 81.9375 39.71875 C 73.796875 39.707031 65.738281 40.203125 57.742188 41.78125 C 55.078125 42.308594 52.710938 41.941406 50.953125 39.335938 C 50.503906 38.671875 48.253906 36.472656 45.125 33.675781 C 44.304688 32.941406 43.417969 32.167969 42.492188 31.367188 C 36.101562 25.855469 26.273438 17.972656 21.085938 15.789062 C 19.21875 15.003906 18.375 15.605469 18.109375 17.546875 C 17.5625 21.636719 17.503906 27.828125 17.277344 31.929688 C 16.890625 38.980469 16.574219 46.019531 17.605469 53.113281 C 18.742188 60.921875 23.1875 66.953125 20.554688 75.058594 C 14.488281 93.730469 19.699219 113.597656 29.871094 121.207031 C 39.714844 128.574219 57.976562 134.992188 74.960938 134.992188 C 92.34375 134.992188 111.492188 128.957031 120.195312 120.949219 C 123.410156 117.996094 139.277344 106.652344 133.738281 77.222656 C 133.53125 76.449219 133.367188 75.738281 133.230469 75.054688 C 132.035156 69.101562 133.492188 66.160156 135.707031 55.136719 C 136.578125 50.78125 137.375 40.632812 137.066406 33.511719 C 136.855469 28.710938 136.535156 22.933594 134.070312 16.71875 Z M 134.070312 16.71875 " fill-opacity="1" fill-rule="nonzero"/><g fill="#ffffff" fill-opacity="1"><g transform="translate(41.960863, 114.344782)"><g><path d="M 20.714844 -7.171875 C 20.714844 -11.605469 20.472656 -16.039062 20.472656 -20.390625 C 20.472656 -21.601562 20.390625 -27.566406 21.277344 -28.128906 C 24.261719 -28.128906 23.695312 -12.574219 34.578125 -12.574219 C 46.828125 -12.574219 44.652344 -28.210938 48.601562 -28.210938 C 48.761719 -27.082031 49.167969 -26.113281 49.167969 -24.90625 C 49.167969 -18.941406 48.84375 -12.976562 48.84375 -7.011719 C 48.84375 -3.386719 49.730469 -1.613281 53.597656 -1.613281 C 56.257812 -1.613281 58.355469 -1.289062 60.207031 -3.386719 C 64.480469 -8.222656 64.804688 -19.746094 64.804688 -26.035156 C 64.804688 -27.808594 64.722656 -29.5 64.722656 -31.273438 C 64.722656 -38.125 64.5625 -47.636719 61.417969 -53.761719 C 60.128906 -56.339844 57.953125 -57.308594 55.128906 -57.308594 C 52.390625 -57.308594 49.085938 -57.550781 47.070312 -55.292969 C 43.605469 -51.261719 39.574219 -30.226562 34.253906 -30.226562 C 29.902344 -30.226562 25.953125 -54.246094 20.796875 -56.582031 C 19.585938 -57.144531 18.375 -57.308594 17.085938 -57.308594 C 15.3125 -57.308594 13.460938 -57.144531 11.769531 -56.582031 C 9.914062 -56.015625 8.703125 -54.566406 7.898438 -52.875 C 5.640625 -48.117188 5.238281 -35.625 5.238281 -30.144531 C 5.238281 -24.582031 5.238281 -5.398438 10.398438 -2.417969 C 12.089844 -1.449219 13.945312 -1.53125 15.796875 -1.53125 C 19.828125 -1.53125 20.714844 -3.386719 20.714844 -7.171875 Z M 20.714844 -7.171875 "/></g></g></g></svg>